inDegrees=yes
name=ik_S47_A03_T02
DataType=double
version=3
OpenSimVersion=4.3-2021-08-27-4bc7ad9
endheader
time	pelvis_tilt	pelvis_list	pelvis_rotation	pelvis_tx	pelvis_ty	pelvis_tz	hip_flexion_r	hip_adduction_r	hip_rotation_r	knee_angle_r	knee_angle_r_beta	ankle_angle_r	subtalar_angle_r	mtp_angle_r	hip_flexion_l	hip_adduction_l	hip_rotation_l	knee_angle_l	knee_angle_l_beta	ankle_angle_l	subtalar_angle_l	mtp_angle_l	lumbar_extension	lumbar_bending	lumbar_rotation	arm_flex_r	arm_add_r	arm_rot_r	elbow_flex_r	pro_sup_r	wrist_flex_r	wrist_dev_r	arm_flex_l	arm_add_l	arm_rot_l	elbow_flex_l	pro_sup_l	wrist_flex_l	wrist_dev_l
31.67999999999941	-3.848321115037525	-5.389518484264614	-82.6972039978711	0	0.9399999999999999	0	-8.005520523815504	4.642354708185835	1.163916652765028	19.42740946111759	0.3390722602295992	0	0	0	15.35122784605782	-3.94345791222587	-9.408036847397248	-5.177278674378465	-0.09036055916119161	0	0	0	0	0	0	43.53543601194399	-43.53543601194401	4.987043792979987	84.83158012707796	85.0129564808133	0	0	43.53543601194399	-43.53543601194401	4.987043792979987	84.83158012707796	85.01295648081123	0	0
31.69999999999941	-3.84646284792369	-5.385149565028284	-82.69592164632775	0	0.9399999999999999	0	-8.046812352475772	4.408638508827283	1.033519138135655	21.9295019352944	0.3827420120933558	0	0	0	15.79723514761216	-2.951654235932521	-4.460062304693158	-2.784477937698786	-0.04859830796198537	0	0	0	0	0	0	43.54107796819309	-43.5410779681931	4.98713063142878	84.83270896743804	85.0128696423676	0	0	43.54107796819309	-43.5410779681931	4.98713063142878	84.83270896743804	85.01286964236553	0	0
31.71999999999941	-2.761302942628649	-5.69889684392567	-81.81790702804722	0	0.9399999999999999	0	-7.453751213290867	2.385223210732339	-1.432310499554702	24.67482164351267	0.4306568800216546	0	0	0	14.66833311413311	-3.132038861876799	-4.449407734079367	-1.71719592821103	-0.02997072284912265	0	0	0	0	0	0	43.54212897302831	-43.54212897302831	4.987149132037246	84.83294946297909	85.01285114175988	0	0	43.54212897302831	-43.54212897302831	4.987149132037246	84.83294946297909	85.01285114175781	0	0
31.73999999999941	-2.444640104612907	-5.884856309037629	-81.63640905495348	0	0.9399999999999999	0	-4.376596130016181	-0.6244658629689379	-4.59022384198643	31.44626353059097	0.548840836058629	0	0	0	12.45420173850054	-3.00698590680393	-10.11494891389921	-1.4003875912725	-0.02444137427177773	0	0	0	0	0	0	43.55449184069445	-43.55449184069446	4.987335874176869	84.83537698241135	85.01266439962689	0	0	43.55449184069445	-43.55449184069446	4.987335874176869	84.83537698241135	85.01266439962481	0	0
31.75999999999941	-2.282778288757094	-5.981931988622852	-81.63147197440455	0	0.9399999999999999	0	-2.165196790141733	-1.753668050744437	-4.690621152575655	37.12763066151765	0.6479993985078834	0	0	0	9.202584560121048	-1.370405650912787	-9.967974715627136	-4.738537665907611	-0.08270308399985486	0	0	0	0	0	0	43.55896742429332	-43.55896742429333	4.987403333039397	84.83625390116998	85.01259694076666	0	0	43.55896742429332	-43.55896742429333	4.987403333039397	84.83625390116998	85.01259694076465	0	0
31.77999999999941	-1.446483680753351	-6.412242787830531	-81.68663065271741	0	0.9399999999999999	0	-2.722744960814429	-2.678633244164971	-4.439096457726149	43.59101635898597	0.7608067597550157	0	0	0	7.57758812407841	-0.1099092965091985	-8.933865658433316	-4.27553896089573	-0.07462223216492758	0	0	0	0	0	0	43.55968219589466	-43.55968219589467	4.987415882642698	84.83641703760711	85.0125843911638	0	0	43.55968219589466	-43.55968219589467	4.987415882642698	84.83641703760711	85.01258439116181	0	0
31.79999999999941	-0.7012834691054922	-6.800902907197202	-81.80464195856032	0	0.9399999999999999	0	-1.064766931333986	-3.996212653464582	-4.54477305043851	48.7048022741096	0.8500591612160342	0	0	0	5.727173679780371	0.213070635374184	-10.46856426065529	-4.774849835239332	-0.08333685091323512	0	0	0	0	0	0	43.56793446345476	-43.56793446345477	4.98753989380243	84.83802909727656	85.01246038000842	0	0	43.56793446345476	-43.56793446345477	4.98753989380243	84.83802909727656	85.01246038000649	0	0
31.81999999999941	-0.2884525776690417	-6.96137138802757	-81.79930132441103	0	0.9399999999999999	0	0.5922456349626293	-5.244102397963473	-5.252084091673713	52.11116416778862	0.9095113917752022	0	0	0	4.073951958712838	0.08354290556996996	-12.15588216103402	-5.510171002084511	-0.09617062633429005	0	0	0	0	0	0	43.57395642424897	-43.57395642424897	4.987633529066608	84.8392462915921	85.0123667447476	0	0	43.57395642424897	-43.57395642424897	4.987633529066608	84.8392462915921	85.01236674474563	0	0
